<svg width="143" height="376" viewBox="0 0 143 376" fill="none" xmlns="http://www.w3.org/2000/svg">
<path d="M71.9993 264.95C72.0053 265.072 71.9728 265.246 71.9711 265.39C71.9636 265.997 71.9411 266.222 71.9284 266.771C71.9095 267.585 71.9521 270 71.7268 270C71.7268 270 71.7268 270 71.7268 270C71.7246 270 71.7223 270 71.7201 269.999C71.6772 269.991 71.6303 269.785 71.5818 269.755C71.5332 269.724 71.2198 269.747 71.2021 269.456C71.1789 269.032 71.2593 268.018 71.2557 267.792C71.2533 267.638 71.2248 267.448 71.2197 267.25C71.2034 266.614 71.2242 266.282 71.1468 265.709C71.1876 265.479 71.2284 265.25 71.2692 265.021C71.2503 264.722 71.3041 264.269 71.3011 264.087C71.2987 263.938 71.2664 263.851 71.2649 263.695C71.2631 263.521 71.2979 263.254 71.2927 262.937C71.2842 262.417 71.2001 262.325 71.1894 262.013C71.1783 261.69 71.2241 261.187 71.1944 260.774C71.1852 260.723 71.1759 260.671 71.1667 260.619C71.1457 260.656 71.1248 260.693 71.1039 260.73C71.0941 260.523 71.137 260.433 71.1378 260.242C71.1387 260.018 71.0981 259.903 71.0983 259.752C71.0984 259.628 71.1311 259.46 71.129 259.3C71.1262 259.066 71.0791 259.117 71.0703 258.991C71.0669 258.941 71.0409 258.012 71.0405 257.959C71.0387 257.561 71.1031 257.526 71.1088 257.208C71.1241 256.326 71.072 255.421 71.0524 254.606C71.0436 254.242 71.0473 253.862 71.0576 253.498C71.2226 254.07 71.351 252.805 71.0928 253.278C71.1295 252.874 71.0599 252.588 71.0716 252.205C71.0793 251.957 71.1151 251.785 71.1142 251.432C71.1123 250.804 71.0106 250.118 71.1944 249.937C71.162 249.2 71.2287 248.562 71.0664 248.297C71.0565 248.107 71.1532 247.62 71.1663 247.407C71.1787 247.205 71.2223 245.659 71.2248 245.406C71.2272 245.153 71.2299 244.71 71.2156 244.497C71.198 244.23 71.0296 244.042 71.2265 243.566C71.2106 243.012 71.2162 242.815 71.2391 242.299C71.2432 242.206 71.2724 242.195 71.2725 242.141C71.2725 242.029 71.2509 241.838 71.2482 241.637C71.2439 241.308 71.3054 241.119 71.2115 241.156C71.1957 240.939 71.18 240.722 71.1642 240.504C71.1824 240.428 71.2005 240.352 71.2186 240.276C71.1989 240.16 71.1791 240.043 71.1594 239.927C71.2953 240.064 71.2151 239.246 71.1371 239.511C71.1652 239.09 71.1933 238.669 71.2214 238.248C71.3759 238.307 71.2393 237.323 71.1553 237.406C71.1554 237.358 71.1555 237.309 71.1556 237.261C71.1967 236.839 71.1631 236.452 71.1907 235.938C71.2182 235.423 71.2333 235.472 71.3043 235.315C71.3002 235.194 71.2962 235.073 71.2921 234.952C71.0973 234.317 71.4346 234.429 71.2851 233.342C71.4076 232.995 71.3433 232.138 71.3061 231.57C71.3018 231.504 71.2781 231.503 71.2707 231.415C71.2531 231.2 71.2837 230.651 71.207 230.67C71.2292 230.48 71.2514 230.29 71.2736 230.1C71.2596 229.944 71.2457 229.789 71.2317 229.634C71.2078 229.634 71.1839 229.635 71.16 229.636C71.2415 229.323 71.2102 228.832 71.2297 228.589C71.2336 228.541 71.2666 228.531 71.2756 228.381C71.2863 228.205 71.2765 227.879 71.2869 227.67C71.2503 227.589 71.2137 227.507 71.1772 227.426C71.1573 227.053 71.2538 226.921 71.2613 226.702C71.2626 226.663 71.2557 225.942 71.2537 225.903C71.2373 225.585 71.1551 225.676 71.1727 224.756C71.1759 224.593 71.2044 224.46 71.2055 224.312C71.2076 224.051 71.143 223.264 71.0834 223.202C71.158 222.885 71.1275 222.037 71.1491 221.787C71.1557 221.711 71.2033 221.694 71.2134 221.463C71.2216 221.275 71.1836 220.791 71.1899 220.553C71.1969 220.3 71.2368 220.209 71.2396 220.096C71.2422 219.989 71.21 219.89 71.2102 219.744C71.2113 219.289 71.2632 218.876 71.2642 218.516C71.2657 217.996 71.1702 217.536 71.1279 217.1C71.134 216.992 71.1545 216.886 71.1547 216.773C71.1577 215.371 71.1753 213.789 71.1957 212.382C71.2051 211.729 71.3346 210.106 71.1185 210.539C71.0807 210.312 71.1678 208.662 71.1691 208.349C71.1704 208.035 71.1317 207.786 71.1311 207.54C71.1294 206.795 71.1573 206.271 71.1236 205.366C71.1148 205.132 71.0689 204.881 71.0694 204.742C71.0701 204.576 71.1145 204.396 71.1174 204.18C71.1237 203.665 71.1091 202.704 71.1168 202.21C71.1183 202.119 71.1573 202.088 71.1695 201.959C71.2171 201.456 71.213 200.892 71.0885 200.992C71.1592 200.348 71.0947 199.752 71.0908 199.154C71.0827 197.892 71.1117 195.592 71.0594 194.492C71.0264 193.798 70.9706 193.816 71.0188 192.795C71.0295 192.568 71.0439 192.342 71.0566 192.067C71.0866 191.423 71.1898 190.832 71.0655 190.341C71.0977 189.625 71.0749 189.055 71.1811 188.524C71.1557 188.461 71.1302 188.399 71.1047 188.336C71.104 188.248 71.1034 188.16 71.1028 188.073C71.1271 188.045 71.1514 188.018 71.1757 187.991C71.1823 187.362 71.0823 186.564 71.0831 186.032C71.0842 185.14 71.123 182.842 71.1558 181.996C71.1732 181.547 71.1212 181.523 71.2282 181.266C71.2208 181.165 71.2133 181.065 71.2059 180.964C71.1824 180.902 71.159 180.839 71.1356 180.776C71.1346 180.2 71.171 179.516 71.1706 178.967C71.1699 177.967 71.1054 176.465 71.1478 175.461C71.1584 175.209 71.2068 174.894 71.2062 174.647C71.2055 174.288 71.1253 174.201 71.1238 173.745C71.1213 172.96 71.2145 171.498 71.2074 170.756C71.2053 170.536 71.1755 170.433 71.1723 170.281C71.1586 169.643 71.161 169.119 71.1149 168.507C71.1918 167.85 71.291 167.906 71.3911 167.703C71.4667 167.548 71.6418 167.075 71.7079 167.008C71.7544 166.961 71.8142 167.137 71.8654 167.071C71.9063 167.858 71.8613 168.189 71.7893 168.828C71.7922 170.009 71.795 171.189 71.7979 172.369C71.77 172.477 71.742 172.584 71.7141 172.692C71.714 172.692 71.714 172.692 71.7139 172.692C71.6817 173.145 71.7536 173.337 71.77 173.582C71.9263 175.922 71.8039 180.529 71.7863 183.106C71.7826 183.661 71.8202 185.467 71.7748 185.848C71.763 185.947 71.7199 185.974 71.7181 186.079C71.7437 187.017 71.7693 187.955 71.7949 188.892C71.728 190.82 71.7833 192.814 71.7936 194.757C71.8215 200.013 71.8555 205.217 71.8451 210.387C71.8431 211.386 71.8754 212.654 71.8545 213.633C71.8459 214.041 71.7767 214.211 71.8283 214.747C71.8097 214.753 71.791 214.759 71.7724 214.764C71.7949 215.232 71.8373 215.531 71.8416 216.056C71.8452 216.498 71.8479 217.667 71.8408 218.058C71.8373 218.26 71.8024 218.185 71.8026 218.373C71.8032 218.697 71.8513 219.387 71.8513 219.834C71.8513 220.238 71.8112 220.919 71.817 221.23C71.8376 222.348 71.8971 223.567 71.8812 224.76C71.8766 225.089 71.8315 225.513 71.8328 225.616C71.8354 225.817 71.8792 225.877 71.8849 226.013C71.9134 226.7 71.8613 227.772 71.8592 228.445C71.8524 230.641 71.8716 232.967 71.8635 235.154C71.8585 236.535 71.8662 238.83 71.8332 240.106C71.8261 240.381 71.778 240.307 71.778 240.538C71.778 240.794 71.8105 240.933 71.8131 241.052C71.8315 241.881 71.8643 243.709 71.8311 244.491C71.8247 244.64 71.7871 244.748 71.7872 244.837C71.7872 244.882 71.8129 244.984 71.8155 245.126C71.8388 246.377 71.8238 247.289 71.815 248.515C71.7983 250.863 71.8461 253.584 71.8202 256.05C71.8146 256.587 71.7401 256.956 71.7409 257.032C71.7424 257.197 71.7925 257.304 71.8049 257.639C71.8455 258.756 71.7921 260.26 71.8172 261.322C71.8296 261.847 71.8931 262.568 71.9072 263.084C71.9185 263.497 71.8935 264.471 71.9214 264.654C71.9383 264.765 71.9925 264.816 71.9993 264.95ZM71.156 251.055C71.2426 251.128 71.1706 250.356 71.1241 250.646C71.1137 250.711 71.1335 251.036 71.156 251.055ZM71.3064 214.896C71.2816 214.903 71.2569 214.91 71.2322 214.917C71.2425 215.019 71.2528 215.12 71.2631 215.222C71.2779 215.165 71.2928 215.108 71.3077 215.051C71.3072 214.999 71.3068 214.948 71.3064 214.896Z" fill="black"/>
<g filter="url(#filter0_n_15_679)">
<path d="M143 64.8353C143 100.643 110.988 167 71.5 167C32.0116 167 0 100.643 0 64.8353C0 29.0277 32.0116 0 71.5 0C110.988 0 143 29.0277 143 64.8353Z" fill="#E91461"/>
</g>
<path d="M83.6915 343.601C83.6185 340.628 83.5222 337.655 83.4842 334.679C83.4842 334.054 83.2507 333.976 82.7106 334.043C81.2712 334.222 79.8144 334.303 78.3838 334.529C77.6656 334.639 77.432 334.468 77.4028 333.768C77.1847 328.975 77.294 324.172 77.7298 319.393C78.0218 316.379 78.6728 313.43 79.0757 310.428C79.4261 309.673 78.6728 308.667 79.6246 308.048L79.7005 307.973L79.6713 307.871C79.6363 305.457 80.4596 303.23 81.2099 300.986C81.3147 300.566 81.5699 300.198 81.9281 299.951C82.6376 299.019 82.0945 298.528 81.3851 297.851C75.3767 292.125 70.0369 285.908 67.5523 277.776C66.3553 273.854 67.1232 270.32 69.669 267.134C71.1959 267.463 71.7535 268.869 72.6878 269.852C73.0002 270.179 72.7695 270.572 72.3228 270.743L72.0601 271.101C71.8003 271.68 71.8645 272.426 71.1988 272.807C71.1796 272.819 71.163 272.834 71.1501 272.851C71.1372 272.869 71.1282 272.89 71.1238 272.911C71.1194 272.933 71.1196 272.955 71.1245 272.977C71.1294 272.998 71.1388 273.018 71.1521 273.036C70.9594 273.848 70.9594 274.693 71.1521 275.506C71.1696 275.882 71.0091 276.298 71.3915 276.596C71.8732 276.761 71.5579 277.218 71.7302 277.495C71.7711 277.784 71.6397 278.129 71.9929 278.322C72.7141 278.611 72.3958 279.308 72.6177 279.794C73.2396 281.694 74.3957 283.291 75.5373 284.89C78.0388 288.399 80.8171 291.706 83.8463 294.78C84.2054 293.701 84.5265 292.727 84.8506 291.755C87.7701 290.566 90.8064 290.697 93.8457 290.948C95.1934 291.091 96.5241 291.362 97.8192 291.758C99.8074 292.481 99.965 292.571 99.8804 294.65C99.8045 296.518 100.683 297.854 101.874 299.106C102.062 299.362 102.141 299.681 102.093 299.994C103.245 303.853 104.177 307.773 104.884 311.735C105.898 317.71 106.473 323.722 106.303 329.786C106.275 330.411 106.2 331.032 106.079 331.646C105.976 332.201 105.766 332.675 105.033 332.305C104.908 332.241 104.741 332.27 104.607 332.221C103.889 331.932 102.756 332.467 102.461 331.851C102.131 331.163 102.423 330.168 102.49 329.309C102.917 323.858 102.163 318.485 101.39 313.114C101.288 312.394 100.806 311.732 100.908 310.954C100.547 310.629 100.329 310.176 100.301 309.693C99.8132 306.697 98.7359 303.829 98.4118 300.934C98.3272 300.622 98.0498 300.841 98.2367 300.781C98.2892 300.763 98.3184 300.781 98.333 300.821C98.7038 301.833 98.4089 302.863 98.4235 303.886C97.9856 306.709 98.1053 309.549 98.1316 312.386C98.1771 312.86 98.1152 313.338 97.9506 313.785C97.7987 314.621 97.8106 315.478 97.9856 316.31L98.0235 316.729C98.3622 317.519 97.9652 318.383 98.2746 319.176C98.6152 322.131 98.9558 325.087 99.2965 328.042C99.4541 329.427 99.5709 330.816 99.749 332.198C99.8249 332.776 99.641 333.011 99.0571 332.918C98.96 332.908 98.8622 332.908 98.7651 332.918C97.5214 332.982 95.8456 332.441 95.1566 333.253C94.5726 333.945 95.0369 335.544 95.0894 336.724C95.5702 347.586 96.0567 358.447 96.5492 369.309C96.59 370.252 97.0718 370.935 97.6469 371.594C98.9257 373.04 100.476 374.217 102.155 375.527C101.499 375.738 100.791 375.727 100.143 375.495C97.9967 374.878 95.955 373.949 94.0851 372.736C93.2764 372.187 92.7596 372.126 92.2575 373.025C92.0881 373.315 91.875 373.792 91.3816 373.572C91.0312 373.419 91.0167 373.014 91.0371 372.678C91.0692 372.155 91.005 371.556 91.2385 371.125C92.8793 368.098 92.1523 364.856 92.1144 361.701C92.0531 357.516 91.7816 353.337 91.5801 349.156C91.3378 344.11 91.0517 339.066 90.8356 334.017C90.8035 333.279 90.5437 333.1 89.8926 333.187C89.5054 333.235 89.1149 333.252 88.7248 333.239C87.8227 333.213 87.4665 333.548 87.5103 334.517C87.6855 338.277 87.8022 342.019 87.8957 345.772C88.0903 352.699 88.2791 359.625 88.4621 366.55C88.4854 367.366 88.4796 368.106 89.1277 368.806C89.9072 369.653 89.6912 370.77 89.4722 371.814C89.3584 371.831 89.2095 371.886 89.1803 371.854C88.3482 370.619 87.7205 370.987 86.8446 371.929C84.8973 374.026 82.3923 375.183 79.321 375.99C81.2771 373.442 83.8258 371.545 84.1908 368.578C84.537 365.807 84.4918 363.002 84.0565 360.243C83.6185 358.711 83.9689 357.149 83.8696 355.616C83.7908 354.436 83.9776 353.248 83.7616 352.068C83.601 350.116 83.8667 348.155 83.6127 346.203C83.5893 345.336 83.4521 344.468 83.6915 343.601Z" fill="#0C1821"/>
<path d="M113.748 277.163C112.817 277.394 112.624 277.906 112.709 278.883C112.881 280.864 113.167 282.756 114.221 284.496C114.656 285.214 114.668 285.864 113.661 286.318C112.367 286.897 111.763 288.172 111.097 289.332C110.513 290.364 109.798 291.119 108.47 290.737C107.389 291.099 107.06 290.159 106.563 289.598C106.189 289.119 105.938 288.557 105.83 287.961C105.845 288.293 105.994 288.612 105.95 288.953C105.95 289.864 104.782 290.593 105.591 291.683C105.787 291.943 105.174 292.177 104.873 292.076C104.114 291.822 103.244 291.911 102.578 291.368C102.46 291.207 102.376 291.024 102.333 290.83C102.333 289.924 101.839 289.65 101.007 289.777C98.7911 288.587 96.4122 287.722 93.945 287.209C92.2167 287.085 90.4808 287.11 88.757 287.284C88.1409 287.357 87.5045 287.49 86.9761 286.995C85.744 286.474 86.3921 285.633 86.5994 284.861C86.3483 283.447 87.3731 282.689 88.3336 282.171C89.7263 281.419 90.5554 280.422 90.8766 278.912C91.035 278.361 91.2888 277.842 91.6269 277.377C92.0852 276.671 92.2604 276.041 91.6269 275.3C91.2327 274.806 91.3028 274.196 91.8166 273.759C92.4006 273.264 92.9582 273.397 93.5304 273.797C94.1698 274.245 94.5231 274.971 95.1654 275.396C95.4573 275.312 95.6091 275.037 95.8427 274.878C96.1054 274.626 95.9741 274.346 95.9069 274.071C95.6646 273.12 95.6792 272.854 97.0105 272.709C100.806 272.296 103.985 274.129 107.395 275.069C109.016 275.514 110.56 276.246 112.259 276.448C112.837 276.509 113.439 276.547 113.748 277.163Z" fill="white"/>
<path d="M95.3872 276.275C94.5317 275.786 94.1785 274.829 93.4106 274.251C92.9581 273.909 92.5348 273.334 91.9509 273.961C91.3669 274.589 91.8078 275.089 92.2837 275.537C92.488 275.731 92.7216 275.896 92.9639 276.093C91.965 277.274 91.2644 278.673 90.9203 280.176C90.6867 281.136 90.0648 281.714 89.189 282.125C88.586 282.375 88.0439 282.749 87.5988 283.222C87.1537 283.696 86.8159 284.259 86.6081 284.872C85.6983 283.145 85.1624 281.249 85.0345 279.306C84.8213 276.385 84.8885 273.441 86.0884 270.63C85.1775 270.106 84.109 270.211 83.0112 269.783L89.3028 265.098C89.7466 264.768 90.2546 265.072 90.7188 264.959C91.3261 264.548 91.9421 264.84 92.5348 264.973C98.5227 266.295 104.479 267.75 110.414 269.282C110.875 269.401 111.369 269.488 111.637 269.959C112.379 270.106 112.77 270.537 113.123 271.234C114.192 273.374 115.325 275.494 117.009 277.382C115.841 277.923 114.817 277.093 113.757 277.16C110.677 277.038 107.874 275.769 105.086 274.739C102.718 273.872 100.123 273.837 98.0235 272.426C97.5301 272.946 98.0235 273.383 97.7929 273.846C97.1768 273.583 96.8557 272.799 95.9477 272.761C96.1929 273.556 96.5316 274.248 96.6017 274.968C96.6863 275.884 96.2046 275.063 95.9886 275.089C95.0689 275.141 95.8163 275.997 95.3872 276.275Z" fill="#0B1822"/>
<path d="M91.6677 263.805C91.44 263.58 90.7918 263.666 91.329 262.975C92.337 261.744 93.2319 260.425 94.0033 259.036C94.5347 258.053 95.104 257.859 96.1375 258.085C100.87 259.12 105.614 260.092 110.312 261.266C111.704 261.619 112.487 262.212 112.309 263.817C112.214 265.113 112.238 266.415 112.382 267.706C112.446 268.545 111.988 268.525 111.418 268.473C110.899 268.762 110.376 268.585 109.862 268.473C104.397 267.18 98.9403 265.85 93.4603 264.623C92.8151 264.485 92.1086 264.433 91.6677 263.805Z" fill="#0C1923"/>
<path d="M86.976 287.007C89.4021 286.801 91.8224 286.24 94.2573 286.931C95.1509 287.315 96.0797 287.612 97.0309 287.819C98.8322 288.192 100.058 289.554 101.676 290.257C102.695 290.697 101.874 291.315 101.384 291.761C100.835 292.582 100.184 292.993 99.2001 292.394C98.8206 292.166 98.3242 292.394 97.9272 292.192C93.6033 290.94 89.2299 291.246 84.8477 291.755C84.8477 291.044 84.8769 290.332 84.8885 289.621C84.9119 288.221 85.5133 287.276 86.976 287.007Z" fill="#E02A27"/>
<path d="M101.212 291.292C101.437 291.13 101.828 290.986 101.848 290.798C101.88 290.491 101.454 290.306 101.218 290.341C100.342 290.459 100 289.815 99.466 289.352C97.9244 288.027 95.9829 287.617 94.0444 287.221C94.0123 287.221 93.986 287.171 93.9568 287.148L94.2487 286.931C96.723 287.296 99.084 288.203 101.159 289.586C101.496 289.614 101.817 289.74 102.08 289.95C102.344 290.16 102.537 290.443 102.637 290.763C102.66 290.937 102.686 291.113 102.71 291.289C103.778 291.848 104.92 292.235 106.032 292.689C106.473 292.868 106.993 292.897 107.284 293.351C108.087 293.698 108.887 293.583 109.684 293.325C110.049 293.106 110.292 293.117 110.268 293.632C108.695 296.31 105.927 297.391 102.943 296.475C102.575 296.359 102.231 296.159 101.825 296.255C100.742 296.102 100.771 295.248 100.838 294.52C100.929 293.444 101.034 292.362 101.212 291.292Z" fill="#D82427"/>
<path d="M91.6678 263.805C98.2835 265.234 104.882 266.732 111.418 268.484C111.519 268.583 111.637 268.663 111.766 268.721C112.213 268.834 112.843 268.802 112.785 269.453C112.724 270.15 112.02 269.791 111.617 269.962C108.697 269.528 105.924 268.556 103.066 267.886C98.9433 266.922 94.8209 265.947 90.6985 264.962L89.8665 264.595C90.0358 263.38 90.9058 263.721 91.6678 263.805Z" fill="#F6F7F7"/>
<path d="M101.212 291.292C101.413 292.16 101.737 292.952 101.288 293.936C101.098 294.324 101.048 294.765 101.145 295.185C101.242 295.606 101.481 295.981 101.822 296.249L102.698 297.868C102.207 298.265 102.493 299.138 101.758 299.39C100.213 298.103 99.025 296.605 99.4395 294.473C99.7023 293.111 99.2556 292.409 97.9185 292.192C98.298 292.192 98.7301 292.053 99.0512 292.192C100.131 292.631 100.73 292.14 101.212 291.292Z" fill="#CF2327"/>
<path d="M107.29 293.351C105.597 293.03 103.95 292.605 102.715 291.289C103.644 291.375 104.559 291.563 105.445 291.85C103.518 290.653 105.696 289.933 105.594 288.976C106.674 289.41 107.136 290.376 107.638 291.313C107.93 291.712 108.423 291.532 108.864 291.668C107.953 291.949 108.403 293.343 107.29 293.351Z" fill="#F7F5F3"/>
<path d="M72.3228 270.743C72.3724 270.413 72.6936 270.144 72.2644 269.757C71.3506 268.932 70.5127 268.021 69.6689 267.134C70.1594 266.902 69.7828 265.595 70.9097 266.148C71.2251 266.046 71.3886 266.191 71.4645 266.483C72.025 266.844 72.5797 267.217 73.152 267.565C73.6366 267.854 73.9899 268.204 73.8877 268.822C73.7417 269.702 73.0352 270.566 72.3228 270.743Z" fill="#F9F9F9"/>
<path d="M101.769 299.395C101.948 299.283 102.085 299.089 101.956 298.927C101.025 297.73 102.032 297.921 102.71 297.874C103.585 298.652 104.365 299.534 105.939 299.763C104.397 300.567 103.244 300.205 102.094 299.985L101.769 299.395Z" fill="#D72D2B"/>
<path d="M107.626 291.313C106.703 290.734 106.166 289.844 105.582 288.976C105.582 288.262 105.054 287.53 105.67 286.61C106.373 288.259 106.668 290.031 108.449 290.737C108.54 290.879 108.741 291.096 108.703 291.154C108.423 291.57 107.991 291.258 107.626 291.313Z" fill="#2B3036"/>
<path d="M110.265 293.632L109.681 293.325C109.889 293.091 110.119 292.709 110.44 292.926C110.709 293.103 110.484 293.429 110.265 293.632Z" fill="#C17C78"/>
<path d="M89.6591 306.648C89.0752 306.602 88.757 306.29 88.7103 305.838C88.6928 305.72 88.7012 305.598 88.7348 305.483C88.7685 305.367 88.8267 305.26 88.9054 305.169C88.9842 305.077 89.0818 305.004 89.1916 304.953C89.3014 304.901 89.421 304.874 89.5424 304.873C90.0766 304.818 90.3394 305.202 90.3919 305.651C90.4562 306.209 90.065 306.492 89.6591 306.648Z" fill="#CBCED1"/>
<path d="M89.5568 310.972C89.0488 310.902 88.716 310.61 88.7248 310.147C88.7228 310.028 88.7448 309.91 88.7894 309.799C88.834 309.689 88.9003 309.588 88.9845 309.503C89.0687 309.418 89.1691 309.35 89.2799 309.304C89.3906 309.258 89.5096 309.234 89.6298 309.234C90.1349 309.21 90.3948 309.607 90.4152 310.061C90.4415 310.633 90.0648 310.896 89.5568 310.972Z" fill="#D0D2D6"/>
<path d="M93.2968 306.613C92.8355 306.524 92.456 306.324 92.4356 305.815C92.42 305.696 92.431 305.576 92.4678 305.461C92.5045 305.347 92.5662 305.243 92.6483 305.155C92.7305 305.067 92.8311 304.997 92.9432 304.952C93.0553 304.907 93.176 304.887 93.2968 304.893C93.4055 304.882 93.5153 304.894 93.619 304.928C93.7227 304.961 93.818 305.017 93.8988 305.09C93.9795 305.162 94.0438 305.251 94.0875 305.35C94.1312 305.45 94.1532 305.557 94.1522 305.665C94.1635 305.784 94.1499 305.904 94.1122 306.017C94.0746 306.131 94.0137 306.235 93.9334 306.324C93.8531 306.413 93.7551 306.485 93.6456 306.535C93.5361 306.584 93.4173 306.611 93.2968 306.613Z" fill="#D7DADC"/>
<path d="M90.4356 314.462C90.4411 314.571 90.4244 314.68 90.3866 314.782C90.3487 314.884 90.2905 314.978 90.2153 315.058C90.1401 315.137 90.0495 315.201 89.949 315.245C89.8484 315.29 89.7398 315.313 89.6298 315.315C89.078 315.35 88.6722 315.052 88.6985 314.468C88.6948 314.346 88.7171 314.225 88.764 314.112C88.8109 313.999 88.8812 313.897 88.9705 313.813C89.0598 313.729 89.1659 313.665 89.282 313.624C89.3982 313.583 89.5216 313.567 89.6444 313.577C90.1524 313.589 90.3568 313.999 90.4356 314.462Z" fill="#D7D9DB"/>
<path d="M94.1814 301.356C94.0968 301.868 93.8194 302.247 93.2764 302.247C93.1679 302.254 93.0592 302.238 92.9572 302.201C92.8552 302.164 92.7622 302.106 92.6841 302.031C92.606 301.956 92.5446 301.866 92.5038 301.766C92.463 301.666 92.4437 301.559 92.4472 301.451C92.4386 301.332 92.4559 301.213 92.4978 301.101C92.5397 300.989 92.6053 300.888 92.6903 300.803C92.7752 300.718 92.8774 300.653 92.9901 300.61C93.1028 300.568 93.2233 300.55 93.3435 300.558C93.8603 300.529 94.0734 300.885 94.1814 301.356Z" fill="#CFD2D4"/>
<path d="M93.4195 297.909C92.9494 297.756 92.4706 297.559 92.4998 296.984C92.5082 296.764 92.6025 296.557 92.7629 296.406C92.9232 296.255 93.1368 296.171 93.3582 296.174C93.9654 296.128 94.234 296.463 94.234 297.041C94.2253 297.533 93.8866 297.785 93.4195 297.909Z" fill="#DBDDDD"/>
<path d="M89.6387 297.909C89.4183 297.905 89.2058 297.827 89.0361 297.688C88.8663 297.549 88.7494 297.356 88.7044 297.143C88.6081 296.564 88.9964 296.237 89.5219 296.162C89.6306 296.143 89.7422 296.146 89.8495 296.173C89.9567 296.199 90.0572 296.247 90.1445 296.314C90.2318 296.381 90.3038 296.465 90.356 296.562C90.4082 296.658 90.4393 296.765 90.4474 296.874C90.5321 297.429 90.1233 297.715 89.6387 297.909Z" fill="#E0E2E5"/>
<path d="M94.2049 310.127C94.0472 310.593 93.799 311.012 93.2122 310.925C92.7538 310.859 92.3918 310.572 92.4852 310.058C92.5142 309.843 92.6235 309.646 92.7916 309.507C92.9597 309.368 93.1744 309.296 93.3932 309.306C93.5027 309.301 93.612 309.319 93.714 309.358C93.816 309.398 93.9084 309.459 93.9851 309.536C94.0617 309.614 94.1209 309.706 94.1588 309.808C94.1967 309.91 94.2124 310.019 94.2049 310.127Z" fill="#D5D8DA"/>
<path d="M94.1171 314.393C94.0325 314.832 93.8252 315.202 93.323 315.26C93.216 315.286 93.1045 315.287 92.997 315.263C92.8895 315.24 92.7888 315.192 92.7025 315.125C92.6162 315.057 92.5465 314.971 92.4988 314.872C92.451 314.774 92.4264 314.666 92.4267 314.557C92.4047 314.337 92.4716 314.118 92.6128 313.946C92.754 313.775 92.9579 313.666 93.18 313.644C93.6705 313.563 93.9624 313.918 94.1171 314.393Z" fill="#D4D8DB"/>
<path d="M89.5979 302.264C89.3718 302.264 89.1549 302.175 88.9951 302.017C88.8352 301.858 88.7454 301.644 88.7454 301.42C88.7454 301.196 88.8352 300.981 88.9951 300.823C89.1549 300.664 89.3718 300.575 89.5979 300.575C89.7058 300.575 89.8126 300.598 89.9117 300.64C90.0107 300.683 90.0999 300.745 90.1737 300.823C90.2476 300.901 90.3045 300.993 90.341 301.094C90.3776 301.194 90.3929 301.301 90.3861 301.408C90.4007 301.888 90.065 302.148 89.5979 302.264Z" fill="#D6D9DE"/>
<path d="M106.724 276.952C107.465 277.437 107.287 277.955 107.518 278.317C107.749 278.678 107.88 279.06 108.332 279.005C108.692 278.958 108.858 278.643 108.832 278.256C108.811 277.993 108.937 277.747 109.217 277.767C109.553 277.79 109.652 278.082 109.678 278.386C109.711 278.672 109.662 278.962 109.537 279.223C109.411 279.483 109.215 279.703 108.969 279.858C108.423 280.228 107.877 280.092 107.384 279.693C106.464 278.956 106.706 278.068 106.724 276.952Z" fill="#23292F"/>
<path d="M104.782 277.862C104.747 279.019 103.851 279.583 102.803 279.054C102.459 278.878 102.163 278.624 101.94 278.311C101.716 277.999 101.572 277.637 101.518 277.258C101.472 276.998 101.349 276.642 101.696 276.512C102.044 276.382 102.146 276.758 102.28 276.989C102.366 277.259 102.476 277.52 102.61 277.77C103.121 278.409 103.658 278.692 104.07 277.666C104.169 277.417 104.111 277.004 104.505 277.059C104.975 277.125 104.721 277.576 104.782 277.862Z" fill="#1F262C"/>
<defs>
<filter id="filter0_n_15_679" x="0" y="0" width="143" height="167" filterUnits="userSpaceOnUse" color-interpolation-filters="sRGB">
<feFlood flood-opacity="0" result="BackgroundImageFix"/>
<feBlend mode="normal" in="SourceGraphic" in2="BackgroundImageFix" result="shape"/>
<feTurbulence type="fractalNoise" baseFrequency="0.3333333432674408 0.3333333432674408" stitchTiles="stitch" numOctaves="3" result="noise" seed="5242" />
<feComponentTransfer in="noise" result="coloredNoise1">
<feFuncR type="linear" slope="2" intercept="-0.5" />
<feFuncG type="linear" slope="2" intercept="-0.5" />
<feFuncB type="linear" slope="2" intercept="-0.5" />
<feFuncA type="discrete" tableValues="0 0 0 0 0 0 0 0 0 0 0 0 0 0 1 1 1 1 1 1 1 1 1 1 1 1 1 1 1 1 1 1 1 1 1 1 0 0 0 0 0 0 0 0 0 0 0 0 0 0 0 0 0 0 0 0 0 0 0 0 0 0 0 0 0 0 0 0 0 0 0 0 0 0 0 0 0 0 0 0 0 0 0 0 0 0 0 0 0 0 0 0 0 0 0 0 0 0 0 0 "/>
</feComponentTransfer>
<feComposite operator="in" in2="shape" in="coloredNoise1" result="noise1Clipped" />
<feComponentTransfer in="noise1Clipped" result="color1">
<feFuncA type="table" tableValues="0 0.15" />
</feComponentTransfer>
<feMerge result="effect1_noise_15_679">
<feMergeNode in="shape" />
<feMergeNode in="color1" />
</feMerge>
</filter>
</defs>
</svg>
