<svg xmlns="http://www.w3.org/2000/svg" xmlns:xlink="http://www.w3.org/1999/xlink" viewBox="0 0 529.11 124.29"><defs><style>.cls-1{fill:url(#brand_gradient);}.cls-2{fill:url(#brand_gradient-2);}.cls-3{fill:url(#brand_gradient-3);}.cls-4{fill:url(#brand_gradient-4);}.cls-5{fill:url(#brand_gradient-5);}.cls-6{fill:url(#brand_gradient-6);}.cls-7{fill:url(#brand_gradient-7);}</style><linearGradient id="brand_gradient" x1="47.05" y1="124.29" x2="47.05" gradientUnits="userSpaceOnUse"><stop offset="0" stop-color="#2b3990"/><stop offset="1" stop-color="#92278f"/></linearGradient><linearGradient id="brand_gradient-2" x1="148.26" y1="124.29" x2="148.26" y2="30.18" xlink:href="#brand_gradient"/><linearGradient id="brand_gradient-3" x1="213.95" y1="124.29" x2="213.95" xlink:href="#brand_gradient"/><linearGradient id="brand_gradient-4" x1="279.65" y1="124.29" x2="279.65" y2="30.18" xlink:href="#brand_gradient"/><linearGradient id="brand_gradient-5" x1="380.85" y1="124.29" x2="380.85" y2="30.18" xlink:href="#brand_gradient"/><linearGradient id="brand_gradient-6" x1="279.75" y1="124.29" x2="279.75" y2="30.18" xlink:href="#brand_gradient"/><linearGradient id="brand_gradient-7" x1="482.06" y1="124.29" x2="482.06" y2="30.18" xlink:href="#brand_gradient"/></defs><g id="Layer_2" data-name="Layer 2"><g id="Layer_1-2" data-name="Layer 1"><path class="cls-1" d="M0,0H23.08V77.24a24,24,0,1,0,24-24H33.74V30.18H47.05A47.06,47.06,0,1,1,0,77.24Z"/><path class="cls-2" d="M172.23,77.24a24,24,0,1,0-24,24h13.31v23.08H148.26a47.06,47.06,0,1,1,47.05-47.05v47.05H172.23Z"/><path class="cls-3" d="M202.41,0h23.08V124.29H202.41Z"/><path class="cls-4" d="M302.4,36.07c-1.59,4.34-3.28,8.56-4.93,12.7-1.19,3-2.4,6-3.58,9.14A24,24,0,0,1,284,100.82a23.4,23.4,0,0,1-4.3.38H279a24,24,0,1,1,10.56-45.8c1.1-2.86,2.22-5.66,3.32-8.44,1.69-4.26,3.43-8.6,5.06-13.05a47,47,0,1,0-18.31,90.39c.61,0,1.21,0,1.81,0a48.17,48.17,0,0,0,5-.46A47,47,0,0,0,302.4,36.07Z"/><path class="cls-5" d="M380.85,30.18A47.06,47.06,0,1,1,333.8,77.24,47.14,47.14,0,0,1,380.85,30.18Zm0,71a24,24,0,1,0-24-24A23.87,23.87,0,0,0,380.85,101.21Z"/><path class="cls-6" d="M279.75,30.18A47.06,47.06,0,1,1,232.7,77.24,47.14,47.14,0,0,1,279.75,30.18Zm0,71a24,24,0,1,0-24-24A23.88,23.88,0,0,0,279.75,101.21Z"/><path class="cls-7" d="M506,77.24a24,24,0,1,0-47.94,0H435a47.05,47.05,0,1,1,94.1,0Zm-71,47.05V77.24h23.08v47.05Zm71,0V77.24h23.08v47.05Z"/></g></g></svg>