<svg width="134" height="32" viewBox="0 0 134 32" fill="none" xmlns="http://www.w3.org/2000/svg">
<g clip-path="url(#clip0_0_1028)">
<path d="M0 0H5.84615V19.8864C5.84615 21.107 6.20216 22.3003 6.86917 23.3152C7.53619 24.3302 8.48425 25.1213 9.59348 25.5885C10.7027 26.0557 11.9233 26.1781 13.1009 25.9401C14.2785 25.7021 15.3603 25.1144 16.2094 24.2514C17.0586 23.3884 17.6369 22.2889 17.8714 21.0917C18.1059 19.8946 17.9859 18.6536 17.5267 17.5258C17.0675 16.3979 16.2897 15.4339 15.2915 14.7554C14.2934 14.077 13.1198 13.7147 11.9191 13.7143H8.54333V7.77084H11.9191C14.2765 7.77084 16.581 8.48152 18.5411 9.81301C20.5012 11.1445 22.0289 13.037 22.931 15.2512C23.8331 17.4654 24.0692 19.9018 23.6093 22.2524C23.1494 24.6029 22.0142 26.7621 20.3472 28.4567C18.6803 30.1514 16.5565 31.3055 14.2444 31.773C11.9324 32.2406 9.53582 32.0006 7.35788 31.0835C5.17995 30.1663 3.31843 28.6132 2.00874 26.6205C0.699045 24.6278 0 22.285 0 19.8884L0 0Z" fill="#E91461"/>
<path d="M43.6164 19.8864C43.6167 18.6655 43.261 17.4719 42.594 16.4566C41.9271 15.4413 40.9789 14.6499 39.8695 14.1825C38.7601 13.7151 37.5392 13.5927 36.3614 13.8308C35.1835 14.0689 34.1016 14.6568 33.2524 15.5201C32.4032 16.3834 31.825 17.4833 31.5908 18.6808C31.3566 19.8783 31.477 21.1194 31.9367 22.2473C32.3965 23.3752 33.1749 24.3391 34.1736 25.0172C35.1723 25.6952 36.3463 26.0569 37.5472 26.0566H40.9192V32H37.5472C35.1898 32 32.8854 31.2893 30.9253 29.9578C28.9652 28.6263 27.4375 26.7338 26.5354 24.5197C25.6332 22.3055 25.3972 19.869 25.8571 17.5185C26.317 15.1679 27.4522 13.0088 29.1191 11.3141C30.786 9.61945 32.9098 8.46537 35.2219 7.99781C37.534 7.53026 39.9305 7.77022 42.1085 8.68737C44.2864 9.60451 46.1479 11.1576 47.4576 13.1504C48.7673 15.1431 49.4664 17.4859 49.4664 19.8825V32H43.6164V19.8864Z" fill="#E91461"/>
<path d="M51.2619 0H57.1081V32H51.2619V0Z" fill="#E91461"/>
<path d="M70.8228 7.77084C73.1802 7.77084 75.4846 8.48152 77.4447 9.81301C79.4048 11.1445 80.9325 13.037 81.8346 15.2512C82.7368 17.4654 82.9728 19.9018 82.5129 22.2524C82.053 24.6029 80.9178 26.7621 79.2509 28.4567C77.584 30.1514 75.4602 31.3055 73.1481 31.773C70.836 32.2406 68.4394 32.0006 66.2615 31.0835C64.0836 30.1663 62.2221 28.6132 60.9124 26.6205C59.6027 24.6278 58.9036 22.285 58.9036 19.8884C58.9082 16.676 60.1654 13.5966 62.3997 11.3251C64.634 9.05365 67.663 7.77549 70.8228 7.77084ZM70.8228 26.0566C72.0236 26.0566 73.1975 25.6945 74.1959 25.0162C75.1943 24.3379 75.9724 23.3739 76.4319 22.246C76.8913 21.118 77.0115 19.8769 76.777 18.6796C76.5426 17.4823 75.9642 16.3825 75.115 15.5194C74.2657 14.6563 73.1838 14.0686 72.006 13.8307C70.8282 13.5928 69.6074 13.7153 68.4981 14.1827C67.3888 14.6502 66.4408 15.4416 65.7739 16.4568C65.1071 17.4721 64.7513 18.6656 64.7517 19.8864C64.7484 20.6978 64.9032 21.5018 65.2071 22.252C65.5111 23.0023 65.9582 23.6839 66.5226 24.2575C67.087 24.8312 67.7576 25.2855 68.4957 25.5943C69.2338 25.9031 70.0247 26.0602 70.8228 26.0566Z" fill="#E91461"/>
<path d="M96.4528 7.77084C98.8102 7.77084 101.115 8.48152 103.075 9.81301C105.035 11.1445 106.562 13.037 107.465 15.2512C108.367 17.4654 108.603 19.9018 108.143 22.2524C107.683 24.6029 106.548 26.7621 104.881 28.4567C103.214 30.1514 101.09 31.3055 98.7781 31.773C96.466 32.2406 94.0695 32.0006 91.8915 31.0835C89.7136 30.1663 87.8521 28.6132 86.5424 26.6205C85.2327 24.6278 84.5336 22.285 84.5336 19.8884C84.5387 16.6762 85.7961 13.597 88.0303 11.3257C90.2645 9.05433 93.2932 7.77601 96.4528 7.77084ZM96.4528 26.0566C97.6536 26.0566 98.8275 25.6945 99.8259 25.0162C100.824 24.3379 101.602 23.3739 102.062 22.246C102.521 21.118 102.641 19.8769 102.407 18.6796C102.173 17.4823 101.594 16.3825 100.745 15.5194C99.8957 14.6563 98.8138 14.0686 97.636 13.8307C96.4582 13.5928 95.2375 13.7153 94.1281 14.1827C93.0188 14.6502 92.0708 15.4416 91.4039 16.4568C90.7371 17.4721 90.3813 18.6656 90.3817 19.8864C90.3787 20.6977 90.5336 21.5016 90.8377 22.2517C91.1417 23.0019 91.5888 23.6834 92.1532 24.257C92.7176 24.8306 93.3881 25.2849 94.126 25.5938C94.864 25.9026 95.6547 26.0599 96.4528 26.0566Z" fill="#E91461"/>
<path d="M128.154 19.8864C128.168 19.0668 128.022 18.2524 127.723 17.4909C127.425 16.7294 126.98 16.036 126.415 15.4512C125.85 14.8664 125.176 14.4019 124.432 14.0848C123.688 13.7678 122.89 13.6045 122.084 13.6045C121.277 13.6045 120.479 13.7678 119.736 14.0848C118.992 14.4019 118.318 14.8664 117.753 15.4512C117.188 16.036 116.743 16.7294 116.444 17.4909C116.146 18.2524 115.999 19.0668 116.014 19.8864H110.167C110.167 16.6726 111.423 13.5905 113.659 11.318C115.894 9.04555 118.925 7.76889 122.087 7.76889C125.248 7.76889 128.279 9.04555 130.515 11.318C132.75 13.5905 134.006 16.6726 134.006 19.8864H128.154ZM110.167 32.0039V19.8864H116.014V32.0039H110.167ZM128.154 32.0039V19.8864H133.994V32.0039H128.154Z" fill="#E91461"/>
</g>
<defs>
<clipPath id="clip0_0_1028">
<rect width="134" height="32" fill="white"/>
</clipPath>
</defs>
</svg>
